<mxfile host="app.diagrams.net" modified="2024-01-08T12:36:51.424Z" agent="Mozilla/5.0 (Windows NT 10.0; Win64; x64) AppleWebKit/537.36 (KHTML, like Gecko) Chrome/115.0.0.0 Safari/537.36" etag="6-veIiLd_oC3LdrBwA3l" version="22.1.17" type="device">
  <diagram id="C5RBs43oDa-KdzZeNtuy" name="Page-1">
    <mxGraphModel dx="548" dy="461" grid="1" gridSize="10" guides="1" tooltips="1" connect="1" arrows="1" fold="1" page="1" pageScale="1" pageWidth="827" pageHeight="1169" math="0" shadow="0">
      <root>
        <mxCell id="WIyWlLk6GJQsqaUBKTNV-0" />
        <mxCell id="WIyWlLk6GJQsqaUBKTNV-1" parent="WIyWlLk6GJQsqaUBKTNV-0" />
        <mxCell id="2COVlAG3W_a2DGFa1vnZ-4" style="edgeStyle=orthogonalEdgeStyle;rounded=0;orthogonalLoop=1;jettySize=auto;html=1;exitX=0.5;exitY=1;exitDx=0;exitDy=0;entryX=0.5;entryY=0;entryDx=0;entryDy=0;" edge="1" parent="WIyWlLk6GJQsqaUBKTNV-1" source="2COVlAG3W_a2DGFa1vnZ-1" target="2COVlAG3W_a2DGFa1vnZ-2">
          <mxGeometry relative="1" as="geometry" />
        </mxCell>
        <mxCell id="2COVlAG3W_a2DGFa1vnZ-1" value="Enter Credinentals" style="rounded=1;whiteSpace=wrap;html=1;arcSize=50;" vertex="1" parent="WIyWlLk6GJQsqaUBKTNV-1">
          <mxGeometry x="230" y="200" width="120" height="40" as="geometry" />
        </mxCell>
        <mxCell id="2COVlAG3W_a2DGFa1vnZ-5" style="edgeStyle=orthogonalEdgeStyle;rounded=0;orthogonalLoop=1;jettySize=auto;html=1;exitX=0.5;exitY=1;exitDx=0;exitDy=0;" edge="1" parent="WIyWlLk6GJQsqaUBKTNV-1" source="2COVlAG3W_a2DGFa1vnZ-2" target="2COVlAG3W_a2DGFa1vnZ-3">
          <mxGeometry relative="1" as="geometry" />
        </mxCell>
        <mxCell id="2COVlAG3W_a2DGFa1vnZ-2" value="Validation" style="rounded=1;whiteSpace=wrap;html=1;arcSize=50;" vertex="1" parent="WIyWlLk6GJQsqaUBKTNV-1">
          <mxGeometry x="230" y="290" width="120" height="40" as="geometry" />
        </mxCell>
        <mxCell id="2COVlAG3W_a2DGFa1vnZ-3" value="" style="html=1;whiteSpace=wrap;aspect=fixed;shape=isoRectangle;" vertex="1" parent="WIyWlLk6GJQsqaUBKTNV-1">
          <mxGeometry x="265" y="390" width="50" height="30" as="geometry" />
        </mxCell>
        <mxCell id="2COVlAG3W_a2DGFa1vnZ-12" style="edgeStyle=orthogonalEdgeStyle;rounded=0;orthogonalLoop=1;jettySize=auto;html=1;exitX=0.5;exitY=1;exitDx=0;exitDy=0;entryX=0.5;entryY=0;entryDx=0;entryDy=0;" edge="1" parent="WIyWlLk6GJQsqaUBKTNV-1" source="2COVlAG3W_a2DGFa1vnZ-6" target="2COVlAG3W_a2DGFa1vnZ-8">
          <mxGeometry relative="1" as="geometry" />
        </mxCell>
        <mxCell id="2COVlAG3W_a2DGFa1vnZ-6" value="Operations on account" style="rounded=1;whiteSpace=wrap;html=1;arcSize=50;" vertex="1" parent="WIyWlLk6GJQsqaUBKTNV-1">
          <mxGeometry x="230" y="470" width="120" height="40" as="geometry" />
        </mxCell>
        <mxCell id="2COVlAG3W_a2DGFa1vnZ-7" style="edgeStyle=orthogonalEdgeStyle;rounded=0;orthogonalLoop=1;jettySize=auto;html=1;exitX=0.5;exitY=0;exitDx=0;exitDy=0;entryX=0.48;entryY=0.967;entryDx=0;entryDy=0;entryPerimeter=0;startArrow=open;startFill=0;endArrow=none;endFill=0;" edge="1" parent="WIyWlLk6GJQsqaUBKTNV-1" source="2COVlAG3W_a2DGFa1vnZ-6" target="2COVlAG3W_a2DGFa1vnZ-3">
          <mxGeometry relative="1" as="geometry" />
        </mxCell>
        <mxCell id="2COVlAG3W_a2DGFa1vnZ-20" value="Valid" style="edgeLabel;html=1;align=center;verticalAlign=middle;resizable=0;points=[];" vertex="1" connectable="0" parent="2COVlAG3W_a2DGFa1vnZ-7">
          <mxGeometry x="-0.0383" y="-1" relative="1" as="geometry">
            <mxPoint x="20" as="offset" />
          </mxGeometry>
        </mxCell>
        <mxCell id="2COVlAG3W_a2DGFa1vnZ-8" value="" style="ellipse;shape=doubleEllipse;whiteSpace=wrap;html=1;aspect=fixed;" vertex="1" parent="WIyWlLk6GJQsqaUBKTNV-1">
          <mxGeometry x="280" y="560" width="20" height="20" as="geometry" />
        </mxCell>
        <mxCell id="2COVlAG3W_a2DGFa1vnZ-10" style="edgeStyle=orthogonalEdgeStyle;rounded=0;orthogonalLoop=1;jettySize=auto;html=1;exitX=0.5;exitY=1;exitDx=0;exitDy=0;" edge="1" parent="WIyWlLk6GJQsqaUBKTNV-1" source="2COVlAG3W_a2DGFa1vnZ-9" target="2COVlAG3W_a2DGFa1vnZ-1">
          <mxGeometry relative="1" as="geometry" />
        </mxCell>
        <mxCell id="2COVlAG3W_a2DGFa1vnZ-9" value="" style="ellipse;whiteSpace=wrap;html=1;aspect=fixed;" vertex="1" parent="WIyWlLk6GJQsqaUBKTNV-1">
          <mxGeometry x="280" y="120" width="20" height="20" as="geometry" />
        </mxCell>
        <mxCell id="2COVlAG3W_a2DGFa1vnZ-13" value="" style="ellipse;shape=doubleEllipse;whiteSpace=wrap;html=1;aspect=fixed;" vertex="1" parent="WIyWlLk6GJQsqaUBKTNV-1">
          <mxGeometry x="460" y="395" width="20" height="20" as="geometry" />
        </mxCell>
        <mxCell id="2COVlAG3W_a2DGFa1vnZ-16" style="edgeStyle=orthogonalEdgeStyle;rounded=0;orthogonalLoop=1;jettySize=auto;html=1;exitX=0;exitY=0.5;exitDx=0;exitDy=0;entryX=0.96;entryY=0.467;entryDx=0;entryDy=0;entryPerimeter=0;startArrow=open;startFill=0;endArrow=none;endFill=0;" edge="1" parent="WIyWlLk6GJQsqaUBKTNV-1" source="2COVlAG3W_a2DGFa1vnZ-13" target="2COVlAG3W_a2DGFa1vnZ-3">
          <mxGeometry relative="1" as="geometry" />
        </mxCell>
        <mxCell id="2COVlAG3W_a2DGFa1vnZ-17" value="Not Valid" style="edgeLabel;html=1;align=center;verticalAlign=middle;resizable=0;points=[];" vertex="1" connectable="0" parent="2COVlAG3W_a2DGFa1vnZ-16">
          <mxGeometry x="0.1081" y="-2" relative="1" as="geometry">
            <mxPoint y="-12" as="offset" />
          </mxGeometry>
        </mxCell>
        <mxCell id="2COVlAG3W_a2DGFa1vnZ-18" value="Valid Customer" style="text;html=1;align=center;verticalAlign=middle;resizable=0;points=[];autosize=1;strokeColor=none;fillColor=none;" vertex="1" parent="WIyWlLk6GJQsqaUBKTNV-1">
          <mxGeometry x="155" y="390" width="100" height="30" as="geometry" />
        </mxCell>
      </root>
    </mxGraphModel>
  </diagram>
</mxfile>
